#N canvas -8 -8 1366 685 10;
#X obj 523 84 vu 15 120 empty empty -1 -8 0 10 -66577 -1 1 0;
#X obj 522 59 pvu~;
#X obj 461 20 Myoutput~;
#X obj 463 83 vu 15 120 empty empty -1 -8 0 10 -66577 -1 1 0;
#X obj 462 58 pvu~;
#X text 407 194 Volume L;
#X text 570 196 Volume R;
#N canvas 0 0 450 300 (subpatch) 0;
#X array channelL 1.3414e+007 float 0;
#X coords 0 1 1.3414e+007 -1 200 100 1 0 0;
#X restore 406 240 graph;
#N canvas 0 0 450 300 (subpatch) 0;
#X array channelR 1.3414e+007 float 2;
#X coords 0 1 1.3414e+007 -1 200 100 1 0 0;
#X restore 198 241 graph;
#X obj 218 -26 bng 15 250 50 0 empty empty empty 17 7 0 10 -262144
-1 -1;
#X obj 218 -7 openpanel;
#X msg 219 16 read -resize \$1 channelL channelR;
#X obj 218 35 soundfiler;
#X floatatom 219 54 10 0 0 0 - - -;
#X obj 218 74 expr 44100 / $f1;
#X floatatom 219 94 5 0 0 0 - - -;
#X obj 219 126 phasor~;
#X obj 353 73 bng 15 250 50 0 empty empty empty 17 7 0 10 -262144 -1
-1;
#X obj 353 91 f;
#X obj 356 111 hsl 100 15 0 0.01 0 0 empty empty empty -2 -8 0 10 -258113
-1 -1 3255 1;
#X obj 220 147 *~;
#X obj 311 52 send samplesize;
#X obj 272 130 r samplesize;
#N canvas 104 55 450 300 progress 0;
#X obj 116 47 inlet~;
#X obj 170 38 inlet;
#X obj 189 62 metro 50;
#X obj 183 87 snapshot~;
#X obj 271 41 inlet;
#X obj 205 137 /;
#X floatatom 183 109 5 0 0 0 - - -;
#X floatatom 205 159 5 0 0 0 - - -;
#X obj 205 180 outlet;
#X connect 0 0 3 0;
#X connect 1 0 2 0;
#X connect 2 0 3 0;
#X connect 3 0 6 0;
#X connect 4 0 5 1;
#X connect 5 0 7 0;
#X connect 6 0 5 0;
#X connect 7 0 8 0;
#X restore 219 175 pd progress;
#X obj 222 198 hsl 150 15 0 1 0 0 empty empty empty -2 -8 0 10 -159808
-1 -1 8645 1;
#X obj 250 156 tgl 15 0 empty empty empty 17 7 0 10 -262144 -1 -1 1
1;
#X obj 159 165 send~ sig;
#X obj 540 -58 tabread4~ channelR;
#X obj 426 -57 tabread4~ channelL;
#X floatatom 337 160 15 0 0 0 - - -;
#X text 201 203 0%;
#X text 374 204 100%;
#X msg 187 102 0;
#X floatatom 397 127 8 0 0 0 - - -;
#X obj 187 82 bng 15 250 50 0 empty empty empty 17 7 0 10 -262144 -1
-1;
#X text 150 84 Pause;
#X obj 355 133 s vel;
#X obj 173 123 r vel;
#X obj 158 145 f;
#X obj 129 84 bng 15 250 50 0 empty empty empty 17 7 0 10 -262144 -1
-1;
#X text 7 83 Play from last part;
#N canvas 0 0 450 300 (subpatch) 0;
#X array current_left 150 float 1;
#A 0 0.00141234 0.00451414 0.00746024 0.010285 0.013002 0.0156829 0.0183659
0.0210213 0.0237431 0.0267125 0.0298452 0.0330101 0.0363845 0.0401986
0.0442955 0.0484592 0.0528788 0.0575917 0.0623032 0.0668882 0.0713098
0.0754314 0.0792457 0.0828372 0.0861481 0.0891256 0.0918366 0.0943564
0.0965603 0.0982185 0.0994212 0.100362 0.100795 0.100462 0.0996416
0.0986064 0.0971417 0.095029 0.0925051 0.0898206 0.0867287 0.0830639
0.0791905 0.0753354 0.0714749 0.0677956 0.0643985 0.0612201 0.0583711
0.0559523 0.0538048 0.0518107 0.0500076 0.0483563 0.0467303 0.0451068
0.043038 0.0408426 0.0382571 0.0355039 0.0317169 0.027781 0.0234409
0.0189997 0.0138265 0.00864664 0.00329722 -0.00202892 -0.00778854 -0.0134854
-0.0192624 -0.0249735 -0.0309559 -0.0368194 -0.0426228 -0.0482762 -0.0538963
-0.0593469 -0.0646427 -0.0697547 -0.0745801 -0.079161 -0.0833817 -0.0873303
-0.0905151 -0.0934204 -0.0959054 -0.0981587 -0.0999305 -0.10158 -0.103099
-0.104545 -0.105861 -0.107094 -0.108169 -0.109125 -0.109547 -0.109783
-0.109627 -0.109265 -0.107886 -0.106262 -0.10407 -0.101622 -0.0978639
-0.0938935 -0.0894041 -0.0847655 -0.0792083 -0.073625 -0.0678255 -0.0620323
-0.0556343 -0.0492575 -0.0426993 -0.0361788 -0.0292378 -0.0224359 -0.0157305
-0.00922247 -0.00292078 0.00314488 0.00896225 0.014554 0.019876 0.024987
0.0298668 0.0345458 0.0389423 0.0431564 0.0471757 0.0510319 0.0546532
0.0580978 0.0612672 0.0642131 0.0665656 0.0683884 0.0696231 0.0705304
0.0704906 0.0698001 0.0684385 0.0667653 0.0640531 0.0606913 0.0567292
0.0525734 0.0477271 0.0426784;
#X coords 0 1 149 -1 200 100 1 0 0;
#X restore 614 242 graph;
#X obj 379 -30 spigot~;
#X obj 607 39 tgl 15 0 empty empty empty 17 7 0 10 -262144 -1 -1 1
1;
#X obj 497 -94 r~ sig;
#X text 623 40 Tocar música com ou sem modificação 1-> com \, 0
-> sem;
#X obj 540 -32 spigot~;
#X obj 438 -30 s~ input_l_eq;
#X obj 591 -32 s~ input_r_eq;
#X obj 431 -2 r~ output_l_eq;
#X obj 522 -2 r~ output_r_eq;
#N canvas 0 0 1362 685 equalizador 0;
#X obj 20 2 inlet~;
#X obj 864 24 inlet~;
#X obj 342 475 outlet~;
#X obj 1153 480 outlet~;
#X obj -27 201 lop~;
#X obj 46 204 hip~;
#X obj 865 96 lop~;
#X obj 993 91 hip~;
#X floatatom -6 170 5 0 0 0 - - -;
#X floatatom 894 75 5 0 0 0 - - -;
#X floatatom 84 166 5 0 0 0 - - -;
#X floatatom 170 158 5 0 0 0 - - -;
#X floatatom 223 158 5 0 0 0 - - -;
#X obj -24 316 *~;
#X obj 53 314 *~;
#X obj 155 305 *~;
#X obj 145 202 bp~;
#X obj 865 276 *~;
#X obj 1096 279 *~;
#X obj 997 275 *~;
#X obj -1 287 tgl 15 0 empty empty empty 17 7 0 10 -262144 -1 -1 1
1;
#X obj 84 288 tgl 15 0 empty empty empty 17 7 0 10 -262144 -1 -1 1
1;
#X obj 182 277 tgl 15 0 empty empty empty 17 7 0 10 -262144 -1 -1 0
1;
#X obj 890 255 tgl 15 0 empty empty empty 17 7 0 10 -262144 -1 -1 1
1;
#X obj 1128 261 tgl 15 0 empty empty empty 17 7 0 10 -262144 -1 -1
0 1;
#X obj 1031 241 tgl 15 0 empty empty empty 17 7 0 10 -262144 -1 -1
1 1;
#X floatatom 1112 83 5 0 0 0 - - -;
#X floatatom 1160 64 5 0 0 0 - - -;
#X floatatom 1027 56 5 0 0 0 - - -;
#X obj -22 508 vu 15 120 empty empty -1 -8 0 10 -66577 -1 1 0;
#X obj -23 485 pvu~;
#X obj 59 506 vu 15 120 empty empty -1 -8 0 10 -66577 -1 1 0;
#X obj 58 482 pvu~;
#X obj 159 503 vu 15 120 empty empty -1 -8 0 10 -66577 -1 1 0;
#X obj 158 479 pvu~;
#X obj 892 506 vu 15 120 empty empty -1 -8 0 10 -66577 -1 1 0;
#X obj 891 482 pvu~;
#X obj 981 512 vu 15 120 empty empty -1 -8 0 10 -66577 -1 1 0;
#X obj 980 488 pvu~;
#X obj 1062 508 vu 15 120 empty empty -1 -8 0 10 -66577 -1 1 0;
#X obj 1061 484 pvu~;
#X obj -22 462 *~ 1;
#X floatatom -1 331 5 0 0 0 - - -;
#X obj 57 459 *~ 1;
#X floatatom 78 318 5 0 0 0 - - -;
#X obj 157 455 *~ 1;
#X floatatom 183 308 5 0 0 0 - - -;
#X floatatom 854 297 5 0 0 0 - - -;
#X floatatom 991 302 5 0 0 0 - - -;
#X floatatom 1102 298 5 0 0 0 - - -;
#X text 218 308 ganho;
#X text 112 318 ganho;
#X text 18 313 ganho;
#X text 815 298 ganho;
#X text 1024 302 ganho;
#X text 1133 296 ganho;
#X text 14 286 on/off;
#X text 99 285 on/off;
#X text 196 274 on/off;
#X text 906 257 on/off;
#X text 1048 242 on/off;
#X text 1144 263 on/off;
#X text -17 215 Low pass;
#X text 60 219 High pass;
#X text 172 203 Band pass;
#X text 898 97 Low pass;
#X text 1024 92 High pass;
#X text 1125 110 Band pass;
#X obj 1100 106 bp~;
#N canvas 59 83 1295 685 configuracao 1;
#X obj 6 255 outlet;
#X obj 66 257 outlet;
#X obj 227 256 outlet;
#X obj 303 254 outlet;
#X obj 121 258 outlet;
#X obj 374 256 outlet;
#X obj 435 250 outlet;
#X obj 495 252 outlet;
#X obj 673 248 outlet;
#X obj 758 246 outlet;
#X obj 550 253 outlet;
#X obj 606 254 outlet;
#X obj 820 248 outlet;
#X text 1 276 f. lop l;
#X text 58 273 f. hip l;
#X obj 177 259 outlet;
#X text 177 275 q bpl;
#X text 120 276 f. bpl;
#X text 609 275 q bpr;
#X text 560 276 f. bpr;
#X text 498 273 f. hip r;
#X text 441 276 f. lop r;
#X text 663 272 on/off lpr;
#X text 737 274 on/off hpr;
#X text 811 276 on/off bpr;
#X text 220 274 on/off lpl;
#X text 294 276 on/off hpl;
#X text 368 278 on/off bpl;
#X obj 6 218 r flopl;
#X obj 67 219 r fhipl;
#X obj 453 200 r flopr;
#X obj 504 201 r fhipr;
#X obj 884 255 outlet;
#X obj 934 281 outlet;
#X obj 1001 282 outlet;
#X obj 1105 286 outlet;
#X obj 1194 286 outlet;
#X obj 1271 287 outlet;
#X obj 1007 227 r ganhoHipl;
#X obj 1176 232 r ganhoHipr;
#X obj 121 219 r fbnpl;
#X obj 177 221 r qbnpl;
#X obj 226 222 r controlLopl;
#X obj 307 223 r controlHipl;
#X obj 372 197 r controlBnpl;
#X obj 547 219 r fbnpr;
#X obj 601 219 r qbnpr;
#X obj 660 216 r controlLopr;
#X obj 746 215 r controlHipr;
#X obj 831 214 r controlBnpr;
#X obj 936 228 r ganhoLopl;
#X obj 1105 233 r ganhoLopr;
#X obj 1267 234 r ganhoBnpr;
#X obj 1014 255 r ganhoBnpl;
#X connect 28 0 0 0;
#X connect 29 0 1 0;
#X connect 30 0 6 0;
#X connect 31 0 7 0;
#X connect 38 0 33 0;
#X connect 39 0 36 0;
#X connect 40 0 4 0;
#X connect 41 0 15 0;
#X connect 42 0 2 0;
#X connect 43 0 3 0;
#X connect 44 0 5 0;
#X connect 45 0 10 0;
#X connect 46 0 11 0;
#X connect 47 0 8 0;
#X connect 48 0 9 0;
#X connect 49 0 12 0;
#X connect 50 0 32 0;
#X connect 51 0 35 0;
#X connect 52 0 37 0;
#X connect 53 0 34 0;
#X restore 531 -38 pd configuracao;
#X obj 230 426 expr $f1 \; if ($f1 != 0 \, $f1 \, 1);
#X obj -51 423 expr $f1 \; if ($f1 != 0 \, $f1 \, 1);
#X obj 84 422 expr $f1 \; if ($f1 != 0 \, $f1 \, 1);
#X obj 838 414 expr $f1 \; if ($f1 != 0 \, $f1 \, 1);
#X obj 997 426 expr $f1 \; if ($f1 != 0 \, $f1 \, 1);
#X obj 1160 406 expr $f1 \; if ($f1 != 0 \, $f1 \, 1);
#X obj 1060 458 *~ 1;
#X obj 887 455 *~ 1;
#X obj 979 463 *~ 1;
#X obj 220 480 env~;
#X floatatom 218 520 5 0 0 0 - - -;
#X obj -12 359 / 10;
#X obj -12 381 + 1;
#X floatatom -12 403 5 0 0 0 - - -;
#X obj 78 349 / 10;
#X obj 78 371 + 1;
#X floatatom 78 393 5 0 0 0 - - -;
#X obj 230 357 / 10;
#X obj 230 379 + 1;
#X floatatom 230 401 5 0 0 0 - - -;
#X obj 837 343 / 10;
#X obj 837 365 + 1;
#X floatatom 837 387 5 0 0 0 - - -;
#X obj 997 361 / 10;
#X obj 997 383 + 1;
#X floatatom 997 405 5 0 0 0 - - -;
#X obj 1159 339 / 10;
#X obj 1159 361 + 1;
#X floatatom 1159 383 5 0 0 0 - - -;
#X obj 258 481 env~;
#X floatatom 256 521 5 0 0 0 - - -;
#X obj 300 481 env~;
#X floatatom 298 521 5 0 0 0 - - -;
#X obj 742 471 env~;
#X floatatom 740 511 5 0 0 0 - - -;
#X obj 780 472 env~;
#X floatatom 778 512 5 0 0 0 - - -;
#X obj 822 472 env~;
#X floatatom 820 512 5 0 0 0 - - -;
#X connect 0 0 4 0;
#X connect 0 0 5 0;
#X connect 0 0 16 0;
#X connect 1 0 6 0;
#X connect 1 0 7 0;
#X connect 1 0 68 0;
#X connect 4 0 13 0;
#X connect 5 0 14 0;
#X connect 6 0 17 0;
#X connect 7 0 19 0;
#X connect 8 0 4 1;
#X connect 9 0 6 1;
#X connect 10 0 5 1;
#X connect 11 0 16 1;
#X connect 12 0 16 2;
#X connect 13 0 41 0;
#X connect 14 0 43 0;
#X connect 15 0 45 0;
#X connect 16 0 15 0;
#X connect 17 0 77 0;
#X connect 18 0 76 0;
#X connect 19 0 78 0;
#X connect 20 0 13 1;
#X connect 21 0 14 1;
#X connect 22 0 15 1;
#X connect 23 0 17 1;
#X connect 24 0 18 1;
#X connect 25 0 19 1;
#X connect 26 0 68 1;
#X connect 27 0 68 2;
#X connect 28 0 7 1;
#X connect 30 0 29 0;
#X connect 32 0 31 0;
#X connect 34 0 33 0;
#X connect 36 0 35 0;
#X connect 38 0 37 0;
#X connect 40 0 39 0;
#X connect 41 0 30 0;
#X connect 41 0 2 0;
#X connect 41 0 79 0;
#X connect 42 0 81 0;
#X connect 43 0 32 0;
#X connect 43 0 2 0;
#X connect 43 0 99 0;
#X connect 44 0 84 0;
#X connect 45 0 34 0;
#X connect 45 0 2 0;
#X connect 45 0 101 0;
#X connect 46 0 87 0;
#X connect 47 0 90 0;
#X connect 48 0 93 0;
#X connect 49 0 96 0;
#X connect 68 0 18 0;
#X connect 69 0 8 0;
#X connect 69 1 10 0;
#X connect 69 2 11 0;
#X connect 69 3 12 0;
#X connect 69 4 20 0;
#X connect 69 5 21 0;
#X connect 69 6 22 0;
#X connect 69 7 9 0;
#X connect 69 8 28 0;
#X connect 69 9 26 0;
#X connect 69 10 27 0;
#X connect 69 11 23 0;
#X connect 69 12 25 0;
#X connect 69 13 24 0;
#X connect 69 14 42 0;
#X connect 69 15 44 0;
#X connect 69 16 46 0;
#X connect 69 17 47 0;
#X connect 69 18 48 0;
#X connect 69 19 49 0;
#X connect 70 0 45 1;
#X connect 71 0 41 1;
#X connect 72 0 43 1;
#X connect 73 0 77 1;
#X connect 74 0 78 1;
#X connect 75 0 76 1;
#X connect 76 0 40 0;
#X connect 76 0 3 0;
#X connect 76 0 107 0;
#X connect 77 0 36 0;
#X connect 77 0 3 0;
#X connect 77 0 103 0;
#X connect 78 0 38 0;
#X connect 78 0 3 0;
#X connect 78 0 105 0;
#X connect 79 0 80 0;
#X connect 81 0 82 0;
#X connect 82 0 83 0;
#X connect 83 0 71 0;
#X connect 84 0 85 0;
#X connect 85 0 86 0;
#X connect 86 0 72 0;
#X connect 87 0 88 0;
#X connect 88 0 89 0;
#X connect 89 0 70 0;
#X connect 90 0 91 0;
#X connect 91 0 92 0;
#X connect 92 0 73 0;
#X connect 93 0 94 0;
#X connect 94 0 95 0;
#X connect 95 0 74 0;
#X connect 96 0 97 0;
#X connect 97 0 98 0;
#X connect 98 0 75 0;
#X connect 99 0 100 0;
#X connect 101 0 102 0;
#X connect 103 0 104 0;
#X connect 105 0 106 0;
#X connect 107 0 108 0;
#X restore 879 -29 pd equalizador;
#X obj 868 -5 s~ output_l_eq;
#X obj 961 -5 s~ output_r_eq;
#X obj 851 -49 r~ input_l_eq;
#X obj 959 -50 r~ input_r_eq;
#N canvas 0 0 450 300 (subpatch) 0;
#X array current_right 150 float 1;
#A 0 -0.168491 -0.164799 -0.158619 -0.154367 -0.143576 -0.123631 -0.108738
-0.101007 -0.085495 -0.0620037 -0.0470743 -0.0400299 -0.0268188 -0.00878258
0.00234566 0.00773621 0.0180908 0.0319218 0.0397076 0.0431641 0.0494324
0.0564371 0.0595465 0.0605408 0.0611755 0.0589464 0.0555643 0.0532806
0.0478455 0.0387182 0.033288 0.0310638 0.028009 0.0274239 0.0294174
0.0309448 0.0345947 0.0407639 0.0445402 0.0462189 0.0487579 0.0499432
0.0486439 0.04729 0.0433624 0.0341261 0.0253162 0.0201141 0.00817261
-0.0112001 -0.0232086 -0.0285645 -0.0373322 -0.0443369 -0.0449196 -0.0441559
-0.0355469 -0.0326012 -0.0266775 -0.0239624 -0.0169006 -0.0159807 -0.0152121
-0.0153137 -0.0174957 -0.0181974 -0.0190727 -0.0191223 -0.0157501 -0.0137814
-0.00823708 -0.0046814 0.013092 0.0182247 0.0289537 0.034317 0.0528442
0.0564619 0.0623013 0.0646271 0.0716095 0.0728567 0.0750164 0.0760529
0.0818848 0.0842255 0.090045 0.0935089 0.110925 0.115884 0.125748 0.130484
0.147107 0.150315 0.155485 0.157382 0.158929 0.157588 0.152882 0.149527
0.129611 0.123425 0.110003 0.102872 0.0727203 0.064818 0.0487356 0.040625
0.00769653 -0.000629806 -0.0171883 -0.0254303 -0.0580811 -0.0660603
-0.0818897 -0.0897797 -0.121558 -0.129557 -0.145381 -0.153058 -0.179718
-0.184985 -0.19316 -0.195944 -0.198325 -0.196877 -0.191734 -0.188089
-0.167618 -0.1613 -0.14799 -0.141116 -0.112234 -0.105138 -0.0913864
-0.0848602 -0.0676893 -0.058143 -0.0502283 -0.0467743 -0.0373272 -0.0324574
-0.0288 -0.0274933 -0.0259336 -0.0263155 -0.0272528 -0.0277313 -0.0279669
-0.0262857;
#X coords 0 1 149 -1 200 100 1 0 0;
#X restore 826 241 graph;
#X obj 647 205 tabwrite~ current_left;
#X obj 837 204 tabwrite~ current_right;
#X obj 612 -13 s~ sPrintr;
#X obj 361 -11 s~ sPrintl;
#X obj 649 185 r~ sPrintl;
#X obj 838 184 r~ sPrintr;
#X obj 647 164 r~ output_l_eq;
#X obj 831 163 r~ output_r_eq;
#X obj 756 187 metro 50;
#X obj 756 165 tgl 15 0 empty empty empty 17 7 0 10 -262144 -1 -1 1
1;
#X obj 168 -24 r local;
#X obj 172 -2 symbol;
#X text 235 -29 Selecionar arquivo;
#X obj 704 76 loadbang;
#X obj 556 61 tgl 15 0 empty empty empty 17 7 0 10 -262144 -1 -1 1
1;
#X text 557 46 Mute;
#X obj 269 154 loadbang;
#N canvas 396 239 450 299 salvar 0;
#X obj 58 35 inlet~;
#X obj 165 33 inlet;
#X msg 165 77 open \$1;
#X obj 259 5 inlet;
#X obj 165 99 trigger b a;
#X msg 80 155 start;
#X obj 322 66 inlet;
#X msg 323 85 stop;
#X obj 59 210 writesf~ 2;
#X obj 113 36 inlet~;
#X obj 165 54 savepanel;
#X obj 258 45 symbol;
#X connect 0 0 8 0;
#X connect 1 0 10 0;
#X connect 2 0 4 0;
#X connect 3 0 11 0;
#X connect 4 0 5 0;
#X connect 4 1 8 0;
#X connect 5 0 8 0;
#X connect 6 0 7 0;
#X connect 7 0 8 0;
#X connect 9 0 8 1;
#X connect 10 0 2 0;
#X connect 11 0 2 0;
#X restore 1108 229 pd salvar;
#X obj 1039 205 r~ sPrintl;
#X obj 1038 184 r~ output_l_eq;
#X obj 1135 137 r~ sPrintr;
#X obj 1138 160 r~ output_r_eq;
#X obj 1140 183 bng 15 250 50 0 empty empty empty 17 7 0 10 -262144
-1 -1;
#X obj 1205 221 bng 15 250 50 0 empty empty empty 17 7 0 10 -262144
-1 -1;
#X text 1220 219 Stop saving;
#X text 1154 180 Start saving;
#X obj 1245 179 r save;
#X floatatom 36 259 5 0 0 0 - - -;
#X floatatom 103 259 5 0 0 0 - - -;
#X floatatom 162 259 5 0 0 0 - - -;
#X obj 36 213 expr $f1 \; if ($f1 > 0.998 \, 1 \, 0) \; if ($f1 !=
1 \, 1 \, 0);
#X obj 37 194 spigot;
#X obj 37 172 t a a;
#X obj 83 193 s fim;
#X obj 177 57 r fim;
#X obj 1306 96 r fim;
#X msg 1242 142 \; pd quit;
#X obj 1304 118 t b b;
#X obj 534 20 tgl 15 0 empty empty empty 17 7 0 10 -262144 -1 -1 1
1;
#X obj 1201 264 symbol;
#X connect 1 0 0 0;
#X connect 2 0 4 0;
#X connect 2 1 1 0;
#X connect 4 0 3 0;
#X connect 9 0 10 0;
#X connect 10 0 11 0;
#X connect 11 0 12 0;
#X connect 12 0 13 0;
#X connect 12 0 21 0;
#X connect 13 0 14 0;
#X connect 14 0 15 0;
#X connect 14 0 18 0;
#X connect 15 0 16 0;
#X connect 16 0 20 0;
#X connect 17 0 18 0;
#X connect 18 0 19 0;
#X connect 19 0 16 0;
#X connect 19 0 33 0;
#X connect 19 0 36 0;
#X connect 20 0 23 0;
#X connect 20 0 26 0;
#X connect 22 0 20 1;
#X connect 22 0 23 2;
#X connect 22 0 29 0;
#X connect 23 0 24 0;
#X connect 24 0 87 0;
#X connect 25 0 23 1;
#X connect 27 0 46 0;
#X connect 28 0 42 0;
#X connect 32 0 16 0;
#X connect 34 0 32 0;
#X connect 37 0 38 1;
#X connect 38 0 16 0;
#X connect 39 0 38 0;
#X connect 42 0 2 0;
#X connect 42 0 60 0;
#X connect 42 1 47 0;
#X connect 43 0 42 1;
#X connect 43 0 46 1;
#X connect 44 0 28 0;
#X connect 44 0 27 0;
#X connect 46 0 2 1;
#X connect 46 0 59 0;
#X connect 46 1 48 0;
#X connect 49 0 2 0;
#X connect 50 0 2 1;
#X connect 51 0 52 0;
#X connect 51 1 53 0;
#X connect 54 0 51 0;
#X connect 55 0 51 1;
#X connect 61 0 57 0;
#X connect 62 0 58 0;
#X connect 63 0 57 0;
#X connect 64 0 58 0;
#X connect 65 0 57 0;
#X connect 65 0 58 0;
#X connect 66 0 65 0;
#X connect 67 0 68 0;
#X connect 68 0 11 0;
#X connect 70 0 66 0;
#X connect 70 0 71 0;
#X connect 70 0 43 0;
#X connect 70 0 95 0;
#X connect 71 0 2 3;
#X connect 73 0 25 0;
#X connect 75 0 74 0;
#X connect 76 0 74 0;
#X connect 77 0 74 1;
#X connect 78 0 74 1;
#X connect 79 0 74 2;
#X connect 80 0 74 4;
#X connect 83 0 96 0;
#X connect 87 0 84 0;
#X connect 87 1 85 0;
#X connect 87 1 89 0;
#X connect 87 2 86 0;
#X connect 88 0 90 0;
#X connect 89 0 88 0;
#X connect 89 1 88 1;
#X connect 91 0 34 0;
#X connect 92 0 94 0;
#X connect 94 0 93 0;
#X connect 94 1 80 0;
#X connect 95 0 2 2;
#X connect 96 0 74 3;
